<?xml version="1.0" ?><!DOCTYPE svg  PUBLIC '-//W3C//DTD SVG 1.1//EN'  'http://www.w3.org/Graphics/SVG/1.1/DTD/svg11.dtd'><svg height="32px" id="Layer_1" style="enable-background:new 0 0 32 32;" version="1.1" viewBox="0 0 32 32" width="32px" xml:space="preserve" xmlns="http://www.w3.org/2000/svg" xmlns:xlink="http://www.w3.org/1999/xlink"><g transform="translate(288 0)"><path d="M-262,25l6-4V11l-6-4l-6,4v2h-17c-1.655,0-3,1.345-3,3c0,1.656,1.345,3,3,3h1v-2h2v2h2v-2h2v2h10v2L-262,25z M-260,20v-8   c0-0.553,0.447-1,1-1c0.554,0,1,0.447,1,1v8c0,0.554-0.446,1-1,1C-259.553,21-260,20.553-260,20z"/></g></svg>